<svg width="301" height="301" viewBox="0 0 301 301" fill="none" xmlns="http://www.w3.org/2000/svg">
<g filter="url(#filter0_i_1_21)">
<mask id="mask0_1_21" style="mask-type:alpha" maskUnits="userSpaceOnUse" x="41" y="31" width="228" height="234">
<g clip-path="url(#clip0_1_21)">
<path fill-rule="evenodd" clip-rule="evenodd" d="M132.925 75.25L105.333 100.333C103.522 102.749 102.643 105.736 102.857 108.747C103.071 111.759 104.364 114.592 106.498 116.727C108.633 118.861 111.466 120.154 114.478 120.368C117.489 120.582 120.476 119.703 122.892 117.892C132.996 107.827 143.901 98.5992 155.5 90.3C167.099 98.5992 178.004 107.827 188.108 117.892C190.437 120.386 193.661 121.854 197.071 121.972C200.482 122.089 203.799 120.847 206.294 118.519C208.788 116.19 210.256 112.966 210.374 109.556C210.491 106.145 209.249 102.828 206.921 100.333L179.329 75.25L211.938 62.7083C226.988 61.4542 234.513 62.7083 239.529 67.725C244.546 73.9958 247.054 87.7917 239.529 110.367C230.75 132.942 213.192 159.279 189.363 183.108C164.279 208.192 139.196 225.75 115.367 233.275C92.7917 242.054 77.7417 239.546 72.725 233.275C68.9625 229.513 66.4542 220.733 68.9625 208.192C71.2987 196.304 75.5335 184.87 81.5042 174.329L105.333 200.667C107.874 202.373 110.951 203.091 113.984 202.686C117.017 202.281 119.798 200.781 121.802 198.468C123.807 196.156 124.896 193.19 124.866 190.13C124.835 187.07 123.687 184.127 121.638 181.854C97.8083 158.025 80.25 131.688 71.4708 109.112C63.9458 86.5375 66.4542 71.4875 71.4708 66.4708C76.4875 62.7083 84.0125 60.2 99.0625 62.7083C107.842 63.9625 119.129 68.9792 131.671 75.25H132.925ZM155.5 61.4542C174.312 51.4208 191.871 43.8958 208.175 40.1333C225.733 37.625 243.292 37.625 255.833 51.4208C272.138 67.725 270.883 95.3167 260.85 120.4C256.743 130.863 251.706 140.936 245.8 150.5C255.833 169.312 263.358 188.125 267.121 203.175C269.629 220.733 267.121 239.546 254.579 252.088C242.038 264.629 224.479 265.883 206.921 263.375C190.617 259.613 173.058 252.087 154.246 242.054L124.146 257.104C99.0625 267.137 71.4708 269.646 53.9125 252.088C41.3708 239.546 40.1167 220.733 42.625 203.175C46.3225 184.422 53.5584 166.545 63.9458 150.5C58.04 140.936 53.0032 130.863 48.8958 120.4C38.8625 95.3167 36.3542 67.725 53.9125 50.1667C67.7083 37.625 86.5208 37.625 105.333 38.8792C120.383 42.6417 137.942 50.1667 155.5 60.2V61.4542ZM180.583 225.75C191.125 231.721 202.558 235.955 214.446 238.292C226.988 240.8 235.767 238.292 239.529 234.529C244.546 229.513 247.054 221.988 244.546 208.192C242.21 196.304 237.975 184.87 232.004 174.329C217.062 193.535 199.789 210.808 180.583 225.75Z" fill="black"/>
<path d="M180.583 150.5C180.583 157.153 177.941 163.533 173.237 168.237C168.533 172.941 162.153 175.583 155.5 175.583C148.848 175.583 142.467 172.941 137.763 168.237C133.059 163.533 130.417 157.153 130.417 150.5C130.417 143.847 133.059 137.467 137.763 132.763C142.467 128.059 148.848 125.417 155.5 125.417C162.153 125.417 168.533 128.059 173.237 132.763C177.941 137.467 180.583 143.847 180.583 150.5Z" fill="black"/>
<path d="M132.925 75.25L105.333 100.333C103.522 102.749 102.643 105.736 102.857 108.747C103.071 111.759 104.364 114.592 106.498 116.727C108.633 118.861 111.466 120.154 114.478 120.368C117.489 120.582 120.476 119.703 122.892 117.892C132.996 107.827 143.901 98.5992 155.5 90.3C167.099 98.5992 178.004 107.827 188.108 117.892C190.437 120.386 193.661 121.854 197.071 121.972C200.482 122.089 203.799 120.847 206.294 118.519C208.788 116.19 210.256 112.966 210.374 109.556C210.491 106.145 209.249 102.828 206.921 100.333L179.329 75.25L211.938 62.7083C226.988 61.4542 234.513 62.7083 239.529 67.725C244.546 73.9958 247.054 87.7917 239.529 110.367C230.75 132.942 213.192 159.279 189.363 183.108C164.279 208.192 139.196 225.75 115.367 233.275C92.7917 242.054 77.7417 239.546 72.725 233.275C68.9625 229.513 66.4542 220.733 68.9625 208.192C71.2987 196.304 75.5335 184.87 81.5042 174.329L105.333 200.667C107.874 202.373 110.951 203.091 113.984 202.686C117.017 202.281 119.798 200.781 121.802 198.468C123.807 196.156 124.896 193.19 124.866 190.13C124.835 187.07 123.687 184.127 121.638 181.854C97.8083 158.025 80.25 131.687 71.4708 109.112C63.9458 86.5375 66.4542 71.4875 71.4708 66.4708C76.4875 62.7083 84.0125 60.2 99.0625 62.7083C107.842 63.9625 119.129 68.9792 131.671 75.25H132.925ZM155.5 61.4542C174.313 51.4208 191.871 43.8958 208.175 40.1333C225.733 37.625 243.292 37.625 255.833 51.4208C272.138 67.725 270.883 95.3167 260.85 120.4C256.743 130.863 251.706 140.936 245.8 150.5C255.833 169.313 263.358 188.125 267.121 203.175C269.629 220.733 267.121 239.546 254.579 252.088C242.038 264.629 224.479 265.883 206.921 263.375C190.617 259.612 173.058 252.087 154.246 242.054L124.146 257.104C99.0625 267.137 71.4708 269.646 53.9125 252.088C41.3708 239.546 40.1167 220.733 42.625 203.175C46.3225 184.422 53.5584 166.545 63.9458 150.5C58.04 140.936 53.0032 130.863 48.8958 120.4C38.8625 95.3167 36.3542 67.725 53.9125 50.1667C67.7083 37.625 86.5208 37.625 105.333 38.8792C120.383 42.6417 137.942 50.1667 155.5 60.2V61.4542ZM180.583 225.75C191.125 231.721 202.558 235.955 214.446 238.292C226.988 240.8 235.767 238.292 239.529 234.529C244.546 229.513 247.054 221.988 244.546 208.192C242.21 196.304 237.975 184.87 232.004 174.329C217.062 193.535 199.789 210.808 180.583 225.75Z" stroke="black" stroke-width="1.33333"/>
<path d="M180.583 150.5C180.583 157.153 177.941 163.533 173.237 168.237C168.533 172.941 162.153 175.583 155.5 175.583C148.848 175.583 142.467 172.941 137.763 168.237C133.059 163.533 130.417 157.153 130.417 150.5C130.417 143.847 133.059 137.467 137.763 132.763C142.467 128.059 148.848 125.417 155.5 125.417C162.153 125.417 168.533 128.059 173.237 132.763C177.941 137.467 180.583 143.847 180.583 150.5Z" stroke="black" stroke-width="1.33333"/>
</g>
</mask>
<g mask="url(#mask0_1_21)">
<g filter="url(#filter1_f_1_21)">
<path d="M227 72.5454L257.098 137.226L328.116 111.061L299.663 176.368L370 204.045L299.663 231.723L328.116 297.03L257.098 270.865L227 335.545L196.902 270.865L125.884 297.03L154.337 231.723L84 204.045L154.337 176.368L125.884 111.061L196.902 137.226L227 72.5454Z" fill="#F03E3E"/>
</g>
<g filter="url(#filter2_f_1_21)">
<path d="M94 67.3833L124.098 132.064L195.116 105.899L166.663 171.206L237 198.883L166.663 226.561L195.116 291.868L124.098 265.703L94 330.383L63.9019 265.703L-7.11627 291.868L21.3369 226.561L-49 198.883L21.3369 171.206L-7.11627 105.899L63.9019 132.064L94 67.3833Z" fill="#FCC419"/>
</g>
<g filter="url(#filter3_f_1_21)">
<path d="M218 -59.6055L248.098 5.07489L319.116 -21.0901L290.663 44.2169L361 71.8945L290.663 99.5721L319.116 164.879L248.098 138.714L218 203.394L187.902 138.714L116.884 164.879L145.337 99.5721L75 71.8945L145.337 44.2169L116.884 -21.0901L187.902 5.07489L218 -59.6055Z" fill="#37B14D"/>
</g>
<g filter="url(#filter4_f_1_21)">
<path d="M84 -58.424L114.098 6.25646L185.116 -19.9085L156.663 45.3985L227 73.076L156.663 100.754L185.116 166.061L114.098 139.896L84 204.576L53.9019 139.896L-17.1163 166.061L11.3369 100.754L-59 73.076L11.3369 45.3985L-17.1163 -19.9085L53.9019 6.25646L84 -58.424Z" fill="#7048E8"/>
</g>
</g>
</g>
<defs>
<filter id="filter0_i_1_21" x="0" y="0" width="301" height="305" filterUnits="userSpaceOnUse" color-interpolation-filters="sRGB">
<feFlood flood-opacity="0" result="BackgroundImageFix"/>
<feBlend mode="normal" in="SourceGraphic" in2="BackgroundImageFix" result="shape"/>
<feColorMatrix in="SourceAlpha" type="matrix" values="0 0 0 0 0 0 0 0 0 0 0 0 0 0 0 0 0 0 127 0" result="hardAlpha"/>
<feOffset dy="4"/>
<feGaussianBlur stdDeviation="2"/>
<feComposite in2="hardAlpha" operator="arithmetic" k2="-1" k3="1"/>
<feColorMatrix type="matrix" values="0 0 0 0 0 0 0 0 0 0 0 0 0 0 0 0 0 0 0.5 0"/>
<feBlend mode="normal" in2="shape" result="effect1_innerShadow_1_21"/>
</filter>
<filter id="filter1_f_1_21" x="18.4" y="6.94541" width="417.2" height="394.2" filterUnits="userSpaceOnUse" color-interpolation-filters="sRGB">
<feFlood flood-opacity="0" result="BackgroundImageFix"/>
<feBlend mode="normal" in="SourceGraphic" in2="BackgroundImageFix" result="shape"/>
<feGaussianBlur stdDeviation="32.8" result="effect1_foregroundBlur_1_21"/>
</filter>
<filter id="filter2_f_1_21" x="-114.6" y="1.78326" width="417.2" height="394.2" filterUnits="userSpaceOnUse" color-interpolation-filters="sRGB">
<feFlood flood-opacity="0" result="BackgroundImageFix"/>
<feBlend mode="normal" in="SourceGraphic" in2="BackgroundImageFix" result="shape"/>
<feGaussianBlur stdDeviation="32.8" result="effect1_foregroundBlur_1_21"/>
</filter>
<filter id="filter3_f_1_21" x="9.4" y="-125.206" width="417.2" height="394.2" filterUnits="userSpaceOnUse" color-interpolation-filters="sRGB">
<feFlood flood-opacity="0" result="BackgroundImageFix"/>
<feBlend mode="normal" in="SourceGraphic" in2="BackgroundImageFix" result="shape"/>
<feGaussianBlur stdDeviation="32.8" result="effect1_foregroundBlur_1_21"/>
</filter>
<filter id="filter4_f_1_21" x="-124.6" y="-124.024" width="417.2" height="394.2" filterUnits="userSpaceOnUse" color-interpolation-filters="sRGB">
<feFlood flood-opacity="0" result="BackgroundImageFix"/>
<feBlend mode="normal" in="SourceGraphic" in2="BackgroundImageFix" result="shape"/>
<feGaussianBlur stdDeviation="32.8" result="effect1_foregroundBlur_1_21"/>
</filter>
<clipPath id="clip0_1_21">
<rect width="227.233" height="233.964" fill="white" transform="translate(41.0358 31)"/>
</clipPath>
</defs>
</svg>
